<svg width="400" height="400" viewBox="0 0 400 400" fill="none" xmlns="http://www.w3.org/2000/svg">
  <g opacity="0.6">
    <!-- Connection Lines -->
    <path d="M50 50L100 100" stroke="white" stroke-width="2" stroke-dasharray="4 4"/>
    <path d="M150 50L100 100" stroke="white" stroke-width="2" stroke-dasharray="4 4"/>
    <path d="M100 100L100 150" stroke="white" stroke-width="2" stroke-dasharray="4 4"/>
    <path d="M100 150L150 200" stroke="white" stroke-width="2" stroke-dasharray="4 4"/>
    <path d="M100 150L50 200" stroke="white" stroke-width="2" stroke-dasharray="4 4"/>
    <path d="M200 100L150 50" stroke="white" stroke-width="2" stroke-dasharray="4 4"/>
    <path d="M200 100L250 50" stroke="white" stroke-width="2" stroke-dasharray="4 4"/>
    <path d="M200 100L200 150" stroke="white" stroke-width="2" stroke-dasharray="4 4"/>
    <path d="M200 150L250 200" stroke="white" stroke-width="2" stroke-dasharray="4 4"/>
    <path d="M200 150L150 200" stroke="white" stroke-width="2" stroke-dasharray="4 4"/>
    <path d="M300 100L250 50" stroke="white" stroke-width="2" stroke-dasharray="4 4"/>
    <path d="M300 100L350 50" stroke="white" stroke-width="2" stroke-dasharray="4 4"/>
    <path d="M300 100L300 150" stroke="white" stroke-width="2" stroke-dasharray="4 4"/>
    <path d="M300 150L350 200" stroke="white" stroke-width="2" stroke-dasharray="4 4"/>
    <path d="M300 150L250 200" stroke="white" stroke-width="2" stroke-dasharray="4 4"/>
    <path d="M50 200L50 250" stroke="white" stroke-width="2" stroke-dasharray="4 4"/>
    <path d="M50 250L100 300" stroke="white" stroke-width="2" stroke-dasharray="4 4"/>
    <path d="M150 250L100 300" stroke="white" stroke-width="2" stroke-dasharray="4 4"/>
    <path d="M100 300L100 350" stroke="white" stroke-width="2" stroke-dasharray="4 4"/>
    <path d="M200 250L150 200" stroke="white" stroke-width="2" stroke-dasharray="4 4"/>
    <path d="M200 250L250 200" stroke="white" stroke-width="2" stroke-dasharray="4 4"/>
    <path d="M200 250L200 300" stroke="white" stroke-width="2" stroke-dasharray="4 4"/>
    <path d="M200 300L250 350" stroke="white" stroke-width="2" stroke-dasharray="4 4"/>
    <path d="M200 300L150 350" stroke="white" stroke-width="2" stroke-dasharray="4 4"/>
    <path d="M300 250L250 200" stroke="white" stroke-width="2" stroke-dasharray="4 4"/>
    <path d="M300 250L350 200" stroke="white" stroke-width="2" stroke-dasharray="4 4"/>
    <path d="M300 250L300 300" stroke="white" stroke-width="2" stroke-dasharray="4 4"/>
    <path d="M300 300L350 350" stroke="white" stroke-width="2" stroke-dasharray="4 4"/>
    <path d="M300 300L250 350" stroke="white" stroke-width="2" stroke-dasharray="4 4"/>
    
    <!-- Nodes -->
    <circle cx="50" cy="50" r="6" fill="white"/>
    <circle cx="150" cy="50" r="6" fill="white"/>
    <circle cx="250" cy="50" r="6" fill="white"/>
    <circle cx="350" cy="50" r="6" fill="white"/>
    <circle cx="100" cy="100" r="8" fill="white"/>
    <circle cx="200" cy="100" r="8" fill="white"/>
    <circle cx="300" cy="100" r="8" fill="white"/>
    <circle cx="100" cy="150" r="8" fill="white"/>
    <circle cx="200" cy="150" r="8" fill="white"/>
    <circle cx="300" cy="150" r="8" fill="white"/>
    <circle cx="50" cy="200" r="6" fill="white"/>
    <circle cx="150" cy="200" r="6" fill="white"/>
    <circle cx="250" cy="200" r="6" fill="white"/>
    <circle cx="350" cy="200" r="6" fill="white"/>
    <circle cx="50" cy="250" r="8" fill="white"/>
    <circle cx="150" cy="250" r="8" fill="white"/>
    <circle cx="200" cy="250" r="8" fill="white"/>
    <circle cx="300" cy="250" r="8" fill="white"/>
    <circle cx="100" cy="300" r="8" fill="white"/>
    <circle cx="200" cy="300" r="8" fill="white"/>
    <circle cx="300" cy="300" r="8" fill="white"/>
    <circle cx="100" cy="350" r="6" fill="white"/>
    <circle cx="150" cy="350" r="6" fill="white"/>
    <circle cx="250" cy="350" r="6" fill="white"/>
    <circle cx="350" cy="350" r="6" fill="white"/>
    
    <!-- Key Icons -->
    <path d="M80 100C80 111.046 71.0457 120 60 120C48.9543 120 40 111.046 40 100C40 88.9543 48.9543 80 60 80C71.0457 80 80 88.9543 80 100Z" fill="white" fill-opacity="0.2" stroke="white" stroke-width="2"/>
    <path d="M60 90V110" stroke="white" stroke-width="2"/>
    <path d="M55 105L65 105" stroke="white" stroke-width="2"/>
    
    <path d="M330 250C330 261.046 321.046 270 310 270C298.954 270 290 261.046 290 250C290 238.954 298.954 230 310 230C321.046 230 330 238.954 330 250Z" fill="white" fill-opacity="0.2" stroke="white" stroke-width="2"/>
    <path d="M310 240V260" stroke="white" stroke-width="2"/>
    <path d="M305 255L315 255" stroke="white" stroke-width="2"/>
    
    <!-- Code Tags -->
    <rect x="180" y="80" width="40" height="20" rx="4" fill="white" fill-opacity="0.2" stroke="white" stroke-width="2"/>
    <rect x="240" y="330" width="40" height="20" rx="4" fill="white" fill-opacity="0.2" stroke="white" stroke-width="2"/>
    <path d="M190 90L195 100L200 90" stroke="white" stroke-width="2"/>
    <path d="M210 90L205 100L200 90" stroke="white" stroke-width="2"/>
    <path d="M250 340L255 350L260 340" stroke="white" stroke-width="2"/>
    <path d="M270 340L265 350L260 340" stroke="white" stroke-width="2"/>
  </g>
</svg> 