<svg width="300" height="300" viewBox="0 0 300 300" fill="none" xmlns="http://www.w3.org/2000/svg">
  <g opacity="0.5">
    <!-- Circuit Tracks -->
    <path d="M20 20H120V60H180V120H140V180H80V140H20V20Z" stroke="white" stroke-width="2" fill="none"/>
    <path d="M180 60H220V100H260V140H220V220H180V180H140V120" stroke="white" stroke-width="2" fill="none"/>
    <path d="M20 140H60V260H140V220H180V260H220V220" stroke="white" stroke-width="2" fill="none"/>
    <path d="M80 180H120V220" stroke="white" stroke-width="2" fill="none"/>
    <path d="M260 140H280V240H240V260" stroke="white" stroke-width="2" fill="none"/>
    
    <!-- Connection Points -->
    <circle cx="20" cy="20" r="4" fill="white"/>
    <circle cx="120" cy="20" r="4" fill="white"/>
    <circle cx="20" cy="140" r="4" fill="white"/>
    <circle cx="120" cy="60" r="4" fill="white"/>
    <circle cx="180" cy="60" r="4" fill="white"/>
    <circle cx="220" cy="60" r="4" fill="white"/>
    <circle cx="220" cy="100" r="4" fill="white"/>
    <circle cx="260" cy="100" r="4" fill="white"/>
    <circle cx="260" cy="140" r="4" fill="white"/>
    <circle cx="280" cy="140" r="4" fill="white"/>
    <circle cx="220" cy="140" r="4" fill="white"/>
    <circle cx="180" cy="120" r="4" fill="white"/>
    <circle cx="140" cy="120" r="4" fill="white"/>
    <circle cx="140" cy="180" r="4" fill="white"/>
    <circle cx="80" cy="180" r="4" fill="white"/>
    <circle cx="80" cy="140" r="4" fill="white"/>
    <circle cx="60" cy="140" r="4" fill="white"/>
    <circle cx="60" cy="260" r="4" fill="white"/>
    <circle cx="140" cy="260" r="4" fill="white"/>
    <circle cx="140" cy="220" r="4" fill="white"/>
    <circle cx="120" cy="220" r="4" fill="white"/>
    <circle cx="180" cy="220" r="4" fill="white"/>
    <circle cx="180" cy="260" r="4" fill="white"/>
    <circle cx="220" cy="260" r="4" fill="white"/>
    <circle cx="220" cy="220" r="4" fill="white"/>
    <circle cx="240" cy="240" r="4" fill="white"/>
    <circle cx="280" cy="240" r="4" fill="white"/>
    <circle cx="240" cy="260" r="4" fill="white"/>
    
    <!-- Chips and Components -->
    <rect x="100" y="30" width="40" height="20" rx="2" stroke="white" stroke-width="2" fill="white" fill-opacity="0.1"/>
    <rect x="200" y="70" width="40" height="20" rx="2" stroke="white" stroke-width="2" fill="white" fill-opacity="0.1"/>
    <rect x="150" y="140" width="20" height="30" rx="2" stroke="white" stroke-width="2" fill="white" fill-opacity="0.1"/>
    <rect x="40" y="190" width="30" height="30" rx="15" stroke="white" stroke-width="2" fill="white" fill-opacity="0.1"/>
    <rect x="160" y="230" width="40" height="20" rx="2" stroke="white" stroke-width="2" fill="white" fill-opacity="0.1"/>
    
    <!-- Small Details -->
    <path d="M215 80L220 85L225 80" stroke="white" stroke-width="1.5"/>
    <path d="M240 79L240 81M244 77L244 83M248 76L248 84" stroke="white" stroke-width="1.5"/>
    <path d="M110 40L130 40" stroke="white" stroke-width="1.5"/>
    <path d="M110 35L130 35" stroke="white" stroke-width="1.5"/>
    <path d="M110 45L130 45" stroke="white" stroke-width="1.5"/>
    <circle cx="55" cy="205" r="10" stroke="white" stroke-width="1.5" fill="none"/>
    <path d="M50 205H60M55 200V210" stroke="white" stroke-width="1.5"/>
    <path d="M170 240H190" stroke="white" stroke-width="1.5"/>
    <path d="M170 245H190" stroke="white" stroke-width="1.5"/>
    <path d="M170 235H190" stroke="white" stroke-width="1.5"/>
  </g>
</svg> 